<?xml version="1.0" encoding="utf-8"?>
<!-- Generator: Adobe Illustrator 25.0.1, SVG Export Plug-In . SVG Version: 6.00 Build 0)  -->
<svg version="1.1" id="Layer_1" xmlns="http://www.w3.org/2000/svg" xmlns:xlink="http://www.w3.org/1999/xlink" x="0px" y="0px"
	 viewBox="0 0 24 24" style="enable-background:new 0 0 24 24;" xml:space="preserve">
<style type="text/css">
	.st0{stroke:#FFFFFF;stroke-width:0.25;stroke-miterlimit:10;}
	.st1{fill:#1D1D1B;}
</style>
<path class="st0" d="M13.8,6.2c-3.2-1-6.5,0.7-7.5,3.9c-1,3.2,0.7,6.5,3.9,7.5c3.2,1,6.5-0.7,7.5-3.9C18.7,10.6,17,7.2,13.8,6.2z
	 M11.3,7.7c0.2-0.2,0.4-0.3,0.6-0.3c0.2,0,0.5,0.1,0.6,0.3s0.3,0.4,0.3,0.7c0,0.2-0.1,0.5-0.3,0.6S12.2,9.2,12,9.2
	c-0.2,0-0.5-0.1-0.6-0.3s-0.3-0.4-0.3-0.6C11.1,8.1,11.1,7.9,11.3,7.7z M13.7,16L13.7,16c-0.4,0-1,0-1.7,0s-1.2,0-1.6,0L10.3,16
	v-0.4l0.1-0.1c0.4,0,0.6,0,0.7-0.1c0.1,0,0.1-0.1,0.1-0.3c0-0.5,0-1.1,0-1.6v-0.8c0-0.8,0-1.2-0.1-1.3c0-0.1-0.1-0.1-0.3-0.1
	c0,0-0.2,0-0.5,0l-0.1-0.1v-0.3l0.1-0.1c0.8-0.1,1.5-0.2,2.3-0.5l0.1,0.1c-0.1,0.7-0.1,1.3-0.1,1.8V14c0,0.3,0,0.7,0,1.2
	c0,0.2,0.1,0.2,0.1,0.3c0.1,0,0.3,0.1,0.7,0.1l0.1,0.1V16z"/>
<polygon class="st1" points="15.7,4.5 12,0.5 8.3,4.5 10.7,4.5 12,3.1 13.3,4.5 "/>
<polygon class="st1" points="19.5,15.7 23.5,12 19.5,8.3 19.5,10.7 20.9,12 19.5,13.3 "/>
<polygon class="st1" points="8.3,19.5 12,23.5 15.7,19.5 13.3,19.5 12,20.9 10.7,19.5 "/>
<polygon class="st1" points="4.5,8.3 0.5,12 4.5,15.7 4.5,13.3 3.1,12 4.5,10.7 "/>
</svg>
